<?xml version="1.0" standalone="no"?>
<!DOCTYPE svg PUBLIC "-//W3C//DTD SVG 20010904//EN"
 "http://www.w3.org/TR/2001/REC-SVG-20010904/DTD/svg10.dtd">
<svg version="1.0" xmlns="http://www.w3.org/2000/svg"
 width="1890.000000pt" height="1516.000000pt" viewBox="0 0 1890.000000 1516.000000"
 preserveAspectRatio="xMidYMid meet">

<g transform="translate(0.000000,1516.000000) scale(0.100000,-0.100000)"
fill="#000000" stroke="none">
<path d="M0 7580 l0 -7580 9450 0 9450 0 0 7580 0 7580 -9450 0 -9450 0 0
-7580z m11105 3661 c-6 -4 -45 -32 -87 -60 -43 -28 -135 -99 -205 -158 -86
-71 -152 -117 -200 -140 -78 -36 -220 -73 -402 -104 -63 -10 -117 -21 -119
-24 -13 -13 73 -17 246 -11 190 8 196 7 181 -11 -39 -45 -183 -229 -268 -340
-97 -129 -166 -190 -274 -244 -109 -55 -342 -103 -612 -125 -44 -4 -86 -10
-94 -14 -26 -14 218 -23 422 -17 148 5 196 4 191 -5 -4 -6 -56 -81 -117 -167
-279 -397 -381 -475 -694 -531 -214 -38 -226 -41 -214 -53 8 -8 65 -12 171
-12 88 0 160 -1 160 -3 0 -1 -95 -66 -212 -142 -133 -89 -219 -152 -233 -172
-50 -76 -79 -199 -90 -393 -7 -117 -23 -173 -57 -194 l-21 -13 7 159 c14 329
70 824 112 993 73 293 202 545 393 767 200 233 560 471 970 643 68 29 271 104
450 167 179 62 387 136 461 163 150 54 148 53 135 41z m-1691 -196 c44 -8 111
-24 149 -37 81 -26 250 -108 254 -123 2 -6 -13 -20 -33 -32 l-37 -21 -91 44
c-298 140 -653 130 -945 -27 -261 -140 -447 -374 -529 -669 l-27 -95 0 -735 0
-735 28 -99 c109 -392 422 -685 820 -767 85 -18 125 -20 242 -16 214 8 381 60
549 172 227 151 378 365 454 644 l27 96 0 695 c0 630 -2 703 -18 778 l-18 82
28 36 27 36 13 -38 c41 -117 44 -184 41 -921 l-3 -708 -28 -100 c-101 -366
-374 -660 -734 -788 -160 -58 -397 -78 -563 -48 -479 85 -854 459 -934 931
-24 144 -25 1416 -1 1538 87 447 441 805 895 902 105 23 321 25 434 5z m-1466
-2829 c13 -21 34 -39 56 -47 l37 -13 -33 -16 c-18 -8 -44 -32 -57 -53 l-25
-38 -18 36 c-11 21 -33 43 -53 52 l-34 16 38 17 c24 12 42 28 50 49 8 17 15
31 16 31 2 0 12 -15 23 -34z m-373 -291 c36 -83 74 -113 215 -172 19 -8 21
-12 10 -17 -8 -3 -40 -15 -71 -26 -86 -31 -145 -98 -179 -205 l-13 -40 -17 51
c-38 112 -107 178 -220 211 l-55 16 55 17 c79 24 111 43 158 94 30 32 47 63
59 107 15 56 18 59 27 38 5 -13 19 -47 31 -74z m645 -2220 c232 -71 364 -262
363 -525 -1 -264 -140 -462 -369 -526 -72 -20 -574 -34 -574 -16 0 6 9 14 21
17 11 4 29 21 40 38 18 30 19 55 19 487 0 432 -1 457 -19 487 -11 17 -29 34
-40 38 -12 3 -21 11 -21 17 0 7 80 9 263 5 207 -4 274 -9 317 -22z m4078 -62
c2 -46 -1 -83 -5 -83 -4 0 -20 20 -35 45 -39 64 -73 78 -200 83 l-108 4 0
-471 c0 -512 0 -516 55 -559 l28 -22 -162 0 -161 0 38 34 37 34 3 492 3 492
-108 -3 c-130 -5 -169 -23 -208 -98 l-24 -46 -1 93 0 92 423 -2 422 -3 3 -82z
m1089 -8 c2 -74 0 -87 -10 -71 -7 10 -21 32 -32 50 -11 17 -40 41 -65 54 -41
20 -58 22 -217 22 l-173 0 2 -247 3 -248 65 -3 c36 -2 94 0 130 3 59 6 69 11
103 46 l37 40 0 -102 0 -102 -34 39 -34 39 -136 3 -136 4 0 -247 0 -247 183 4
c205 3 226 9 321 88 27 22 51 39 53 36 2 -2 -14 -40 -36 -85 l-41 -81 -368 0
-367 0 37 33 c21 17 42 45 48 60 6 18 10 190 10 458 0 472 -1 484 -60 517 -16
9 -30 20 -30 25 0 4 168 6 373 5 l372 -3 2 -90z m-7708 -409 c204 -521 207
-528 286 -569 29 -16 28 -16 -63 -17 -148 0 -169 18 -248 216 -31 76 -61 142
-68 146 -6 4 -83 8 -171 8 -88 0 -165 -4 -172 -8 -12 -8 -103 -267 -103 -296
0 -9 12 -28 26 -41 l27 -25 -104 0 -104 1 36 19 c20 11 48 33 62 49 31 37 307
858 307 912 0 38 -11 57 -50 83 -24 15 -22 16 60 16 l85 0 194 -494z m1196 84
c200 -304 272 -405 278 -394 5 8 7 173 5 367 -3 383 -3 382 -61 417 l-32 20
110 0 110 0 -33 -20 c-62 -38 -62 -39 -62 -575 l0 -486 -36 3 c-37 3 -38 5
-343 470 -168 257 -312 473 -319 480 -9 9 -12 -78 -12 -427 1 -476 0 -469 56
-506 l29 -19 -105 0 c-103 1 -104 1 -78 18 57 35 58 40 58 522 0 489 0 493
-63 524 -31 15 -27 16 98 16 l130 0 270 -410z m2624 -82 c200 -511 209 -530
281 -568 l35 -19 -95 -1 c-149 0 -163 13 -250 229 l-55 136 -170 2 c-93 2
-175 0 -181 -5 -16 -10 -97 -260 -96 -296 0 -19 9 -37 24 -48 22 -17 21 -18
-77 -17 -82 0 -96 2 -80 12 11 7 36 28 56 47 33 32 47 67 177 460 78 234 142
440 142 458 0 43 -14 68 -48 86 -26 14 -23 15 59 16 l85 0 193 -492z m1197 82
c148 -225 272 -410 277 -410 13 0 7 701 -6 740 -7 19 -27 44 -46 57 l-34 23
108 0 108 0 -34 -23 c-19 -13 -39 -38 -46 -57 -9 -25 -12 -171 -12 -517 l-1
-483 -34 0 c-34 0 -36 3 -347 480 -173 263 -317 479 -321 480 -5 0 -8 -194 -8
-431 0 -470 1 -476 58 -511 26 -17 25 -17 -78 -18 l-105 0 29 19 c56 37 55 29
55 521 0 492 1 484 -55 521 l-29 19 126 0 126 0 269 -410z"/>
<path d="M7882 5183 l3 -508 130 0 c125 0 132 1 183 29 141 79 215 244 215
481 0 195 -50 335 -152 428 -68 60 -126 77 -267 77 l-114 0 2 -507z"/>
<path d="M5321 5267 c-39 -116 -71 -215 -71 -220 0 -4 72 -7 160 -7 125 0 160
3 160 13 0 12 -14 50 -121 325 -22 56 -44 102 -49 102 -5 0 -40 -96 -79 -213z"/>
<path d="M9146 5273 c-38 -115 -71 -214 -73 -220 -4 -10 32 -13 161 -13 91 0
166 1 166 3 0 13 -171 432 -177 434 -5 2 -39 -90 -77 -204z"/>
</g>
</svg>
