<?xml version="1.0" standalone="no"?>
<!DOCTYPE svg PUBLIC "-//W3C//DTD SVG 20010904//EN"
 "http://www.w3.org/TR/2001/REC-SVG-20010904/DTD/svg10.dtd">
<svg version="1.0" xmlns="http://www.w3.org/2000/svg"
 width="2012.000000pt" height="1525.000000pt" viewBox="0 0 2012.000000 1525.000000"
 preserveAspectRatio="xMidYMid meet">

<g transform="translate(0.000000,1525.000000) scale(0.100000,-0.100000)"
fill="#000000" stroke="none">
<path d="M0 7625 l0 -7625 10060 0 10060 0 0 7625 0 7625 -10060 0 -10060 0 0
-7625z m16090 7362 c-421 -243 -803 -523 -1210 -886 -199 -178 -367 -281 -615
-376 -260 -100 -489 -152 -1195 -271 -179 -30 -329 -56 -335 -58 -66 -23 1006
-17 1280 7 88 8 162 13 164 11 4 -4 12 6 -210 -264 -235 -288 -472 -590 -692
-883 -100 -133 -224 -286 -277 -341 -159 -164 -370 -312 -603 -421 -362 -169
-978 -285 -1946 -365 -310 -25 -373 -32 -367 -37 6 -6 105 -17 356 -40 163
-14 305 -18 690 -18 476 0 659 8 940 40 63 7 117 11 119 9 3 -2 -4 -17 -16
-32 -22 -30 -303 -431 -488 -697 -609 -875 -975 -1205 -1535 -1383 -138 -44
-174 -51 -710 -147 -267 -47 -492 -88 -500 -91 -32 -11 18 -22 175 -37 320
-32 564 -31 863 4 52 6 95 9 97 7 12 -12 -669 -476 -1074 -730 -124 -78 -246
-161 -270 -183 -222 -203 -335 -627 -375 -1405 -11 -222 -15 -261 -34 -303
-37 -84 -84 -146 -136 -182 -69 -47 -79 -46 -73 8 3 23 10 182 16 352 22 633
73 1257 162 1955 22 173 46 371 55 440 82 704 269 1336 575 1950 493 990 1207
1740 2268 2382 790 479 1507 800 2846 1274 116 41 316 113 445 159 129 47 397
140 595 209 332 114 850 300 1005 360 93 36 95 32 10 -17z m-5650 -653 c499
-49 992 -214 1441 -480 l111 -66 -132 -69 c-73 -38 -138 -69 -145 -69 -7 0
-57 24 -111 54 -337 185 -761 317 -1179 368 -159 19 -586 16 -746 -5 -227 -30
-444 -79 -635 -142 -1258 -420 -2141 -1548 -2244 -2865 -8 -103 -10 -701 -8
-2070 4 -2093 1 -1963 59 -2260 102 -526 329 -1015 663 -1430 312 -387 715
-705 1158 -914 626 -296 1346 -384 2028 -250 1313 258 2337 1288 2594 2609 54
277 51 154 51 2325 0 1883 -1 2013 -18 2140 -16 119 -54 312 -88 452 l-12 46
71 79 c38 43 83 93 99 112 l29 33 42 -148 c82 -291 117 -515 133 -859 7 -141
9 -870 6 -2020 -4 -1923 -3 -1859 -53 -2150 -122 -708 -474 -1388 -984 -1895
-889 -885 -2154 -1234 -3371 -930 -430 107 -891 327 -1243 592 -711 537 -1185
1295 -1356 2168 -54 278 -51 179 -61 2275 -5 1073 -7 2002 -4 2065 36 711 307
1411 773 1999 90 114 331 362 457 470 470 405 1039 678 1650 795 343 65 649
77 1025 40z m-4241 -8777 c45 -73 115 -119 239 -157 39 -12 72 -23 72 -25 0
-2 -30 -13 -67 -26 -182 -59 -245 -121 -299 -293 l-28 -90 -26 80 c-63 185
-120 245 -290 300 l-85 27 84 28 c180 61 240 123 292 303 l23 79 31 -95 c18
-53 42 -111 54 -131z m-1229 -679 c30 -101 73 -221 97 -268 107 -216 273 -341
568 -430 77 -23 146 -45 153 -49 30 -17 -39 -55 -179 -98 -197 -61 -278 -104
-388 -208 -113 -106 -172 -214 -236 -427 -33 -110 -67 -178 -88 -178 -4 0 -26
62 -51 138 -85 264 -131 347 -265 474 -102 99 -206 150 -443 220 -98 29 -178
55 -178 58 0 3 82 29 183 59 206 61 304 106 402 184 148 119 221 245 307 529
29 98 55 178 58 178 3 0 30 -82 60 -182z m-3275 -3375 c242 -615 455 -1149
472 -1186 53 -111 125 -171 293 -245 19 -8 -17 -11 -160 -11 -252 -1 -334 21
-424 114 -60 61 -98 140 -226 465 -61 157 -117 288 -123 292 -7 4 -200 8 -429
8 -387 0 -418 -1 -427 -18 -5 -9 -55 -154 -112 -321 -80 -238 -102 -317 -103
-360 0 -75 22 -114 87 -151 l52 -30 -255 0 -255 0 84 42 c95 48 163 109 202
184 15 27 171 481 348 1010 339 1010 347 1040 327 1148 -9 48 -66 110 -128
142 -26 13 -48 27 -48 29 0 3 87 5 193 5 l192 0 440 -1117z m2857 128 c356
-542 653 -990 658 -995 7 -7 10 264 8 874 l-3 885 -24 52 c-27 61 -84 116
-150 147 l-46 21 133 3 c73 1 190 1 260 0 l127 -3 -55 -28 c-72 -37 -113 -78
-142 -141 l-23 -51 -3 -1167 -2 -1168 -73 0 -73 0 -579 883 c-319 485 -664
1010 -767 1167 l-188 285 2 -1060 3 -1060 26 -55 c27 -58 71 -100 144 -138
l40 -21 -255 0 -255 0 48 25 c72 37 131 101 153 165 18 52 19 101 19 1079 0
808 -3 1036 -13 1075 -19 74 -68 135 -141 173 -33 18 -61 35 -61 38 0 2 131 3
292 2 l292 -3 648 -984z m3093 961 c266 -65 412 -145 585 -321 246 -250 362
-584 347 -996 -23 -615 -373 -1060 -934 -1186 -94 -22 -121 -23 -698 -26
l-600 -3 48 26 c27 14 68 45 92 69 79 78 75 15 75 1180 0 1128 2 1088 -58
1171 -18 24 -53 52 -90 72 -34 18 -62 35 -62 38 0 3 271 3 603 1 577 -3 606
-4 692 -25z m3080 -1122 c248 -630 459 -1160 469 -1178 42 -81 128 -152 243
-202 l68 -29 -185 -1 c-203 0 -266 10 -352 57 -56 30 -103 79 -143 148 -16 26
-83 187 -151 359 l-122 311 -425 3 c-332 2 -427 -1 -434 -10 -19 -25 -213
-610 -219 -662 -11 -91 16 -140 101 -185 l40 -21 -260 0 -260 1 60 26 c110 47
191 117 236 205 26 50 619 1811 655 1943 51 189 19 286 -117 356 -22 11 -39
22 -39 24 0 3 86 4 192 3 l192 -3 451 -1145z m2845 160 c359 -545 657 -993
661 -996 14 -8 11 1670 -2 1741 -20 107 -60 161 -159 212 l-55 28 133 3 c73 1
190 1 260 0 l127 -3 -57 -28 c-65 -32 -131 -101 -150 -156 -10 -28 -13 -302
-16 -1203 l-2 -1168 -74 0 -74 0 -763 1162 -764 1163 -3 -1040 c-2 -1159 -5
-1106 65 -1184 21 -22 63 -54 93 -71 l55 -30 -260 0 -260 1 50 25 c80 41 112
70 142 131 l28 58 3 1044 c3 1176 6 1114 -71 1198 -22 24 -63 56 -89 69 -26
13 -48 27 -48 29 0 3 130 5 289 5 l289 0 652 -990z m3770 785 c0 -113 -2 -205
-4 -205 -2 0 -22 37 -44 83 -73 150 -173 224 -335 246 -45 7 -161 11 -257 9
l-175 -3 0 -1130 0 -1130 23 -51 c28 -61 79 -113 147 -147 l50 -26 -405 0
-405 -1 55 31 c73 40 114 81 142 143 l23 51 0 1130 0 1130 -220 -1 c-169 0
-233 -4 -278 -16 -123 -34 -205 -106 -270 -237 l-42 -85 -3 194 c-1 107 0 200
2 207 4 10 201 13 1001 13 l995 0 0 -205z m2580 -7 l-1 -213 -43 90 c-51 104
-111 172 -187 211 -92 46 -169 53 -576 54 l-373 0 0 -591 0 -591 288 4 c265 4
291 6 343 26 64 26 106 65 148 142 l31 55 0 -260 -1 -260 -23 47 c-36 73 -69
111 -127 143 l-54 30 -302 3 -303 3 0 -585 0 -586 369 0 c390 0 456 6 571 49
91 34 199 104 303 195 53 48 97 84 97 81 0 -3 -44 -93 -97 -200 l-98 -195
-870 0 -870 0 53 28 c70 36 119 84 146 141 l21 46 0 1050 c0 870 -2 1058 -14
1098 -18 61 -78 127 -151 167 l-55 30 888 0 887 0 0 -212z"/>
<path d="M882 1567 c-100 -298 -182 -545 -182 -549 0 -10 800 -11 800 -2 0 11
-421 1078 -428 1086 -4 4 -89 -237 -190 -535z"/>
<path d="M6930 1341 l0 -1211 240 0 c326 0 425 21 573 120 312 209 485 676
448 1212 -13 187 -37 320 -86 465 -105 313 -303 525 -560 599 -48 13 -115 18
-337 21 l-278 5 0 -1211z"/>
<path d="M9898 1563 l-185 -548 400 -3 c220 -1 402 -1 403 1 4 4 -420 1084
-428 1092 -3 3 -89 -241 -190 -542z"/>
</g>
</svg>
