<?xml version="1.0" standalone="no"?>
<!DOCTYPE svg PUBLIC "-//W3C//DTD SVG 20010904//EN"
 "http://www.w3.org/TR/2001/REC-SVG-20010904/DTD/svg10.dtd">
<svg version="1.0" xmlns="http://www.w3.org/2000/svg"
 width="2015.000000pt" height="343.000000pt" viewBox="0 0 2015.000000 343.000000"
 preserveAspectRatio="xMidYMid meet">

<g transform="translate(0.000000,343.000000) scale(0.100000,-0.100000)"
fill="#000000" stroke="none">
<path d="M0 1715 l0 -1715 10075 0 10075 0 0 1715 0 1715 -10075 0 -10075 0 0
-1715z m1700 -12 c243 -621 456 -1154 472 -1187 44 -87 112 -150 221 -201 l92
-44 -177 -1 c-97 0 -201 5 -230 11 -113 24 -209 92 -267 189 -14 24 -82 186
-151 360 l-126 315 -427 3 -428 2 -14 -32 c-8 -18 -58 -163 -111 -323 -128
-382 -129 -421 -10 -494 l51 -31 -260 0 -260 1 59 25 c118 51 191 113 237 201
15 26 171 481 348 1010 339 1010 347 1039 327 1147 -9 47 -64 109 -131 147
l-50 29 196 0 195 0 444 -1127z m2855 135 c357 -543 653 -990 658 -994 4 -4 6
390 5 877 -3 732 -6 891 -18 922 -20 56 -85 124 -149 157 l-56 29 258 1 c141
0 257 -2 257 -4 0 -2 -25 -16 -55 -30 -62 -31 -124 -96 -145 -153 -12 -32 -15
-226 -18 -1206 l-2 -1167 -73 0 -72 0 -605 922 c-333 507 -678 1032 -767 1167
l-163 246 3 -1060 2 -1060 28 -58 c30 -59 61 -89 137 -129 l45 -23 -128 -3
c-70 -1 -184 -1 -255 0 l-127 3 50 25 c72 36 129 97 151 161 18 52 19 101 19
1084 0 950 -1 1034 -17 1086 -23 72 -75 130 -153 169 l-60 29 300 -2 300 -2
650 -987z m3021 977 c273 -47 475 -148 649 -324 133 -135 216 -272 280 -464
55 -165 69 -265 69 -487 0 -164 -3 -211 -22 -297 -86 -397 -301 -685 -627
-843 -115 -56 -165 -73 -290 -102 -85 -20 -124 -22 -690 -25 l-600 -4 60 37
c80 48 93 60 124 119 l26 50 0 1075 0 1075 -27 52 c-30 56 -68 90 -144 128
l-49 24 576 0 c474 1 592 -2 665 -14z m3145 -1125 c246 -624 462 -1161 480
-1194 54 -94 119 -143 279 -214 19 -8 -16 -11 -159 -11 -249 -1 -334 21 -426
113 -65 65 -88 112 -220 449 l-123 312 -430 3 -430 2 -40 -112 c-103 -293
-182 -548 -182 -589 0 -66 27 -109 90 -146 l54 -33 -258 0 -258 0 89 45 c97
48 165 110 203 184 28 55 635 1863 660 1966 43 175 11 268 -112 331 -27 13
-48 27 -48 29 0 3 87 4 192 3 l193 -3 446 -1135z m2849 152 c356 -541 653
-989 659 -995 15 -15 16 1655 0 1738 -20 107 -72 175 -166 217 -24 10 -43 21
-43 23 0 3 116 5 258 5 l257 -1 -50 -26 c-66 -33 -123 -88 -149 -143 -21 -45
-21 -45 -24 -1217 l-2 -1173 -74 0 -73 0 -648 988 c-848 1289 -877 1333 -882
1329 -2 -2 -3 -470 -3 -1039 0 -1151 -3 -1099 68 -1177 20 -22 62 -54 92 -71
l55 -30 -260 1 -260 0 50 26 c81 42 113 71 142 131 l28 57 3 1044 c3 1145 5
1103 -56 1187 -19 26 -54 53 -98 77 l-69 37 299 -3 298 -2 648 -983z m3770
783 c0 -113 -2 -205 -4 -205 -2 0 -19 33 -38 73 -55 114 -105 170 -190 211
-95 46 -162 56 -396 56 l-193 0 3 -1132 3 -1133 23 -51 c28 -62 69 -103 142
-143 l55 -31 -405 0 -405 0 55 31 c100 55 139 108 159 214 8 40 11 405 11
1152 l0 1093 -192 0 c-234 0 -301 -10 -396 -56 -83 -40 -131 -93 -188 -206
-19 -37 -36 -68 -39 -68 -3 0 -5 90 -5 200 l0 200 1000 0 1000 0 0 -205z
m2579 -7 l0 -213 -38 80 c-57 121 -106 177 -193 219 -41 20 -102 40 -138 46
-36 5 -233 10 -437 10 l-373 0 0 -585 0 -585 26 -6 c14 -4 141 -4 282 -1 289
5 330 13 399 72 23 20 55 62 72 97 l31 61 0 -264 -1 -264 -23 47 c-36 74 -73
116 -129 146 l-52 27 -302 3 -303 3 0 -586 0 -586 393 3 c366 4 397 6 471 26
143 40 245 101 415 250 34 30 61 51 61 48 0 -3 -44 -94 -97 -201 l-98 -195
-870 0 -870 1 50 26 c73 37 131 98 152 157 17 48 18 123 18 1091 0 856 -2
1048 -14 1088 -18 62 -79 131 -150 167 l-56 29 888 1 887 0 -1 -212z"/>
<path d="M882 1777 c-100 -298 -182 -545 -182 -549 0 -5 181 -8 401 -8 377 0
401 1 396 18 -9 34 -418 1067 -425 1074 -4 4 -89 -237 -190 -535z"/>
<path d="M6930 1551 l0 -1211 233 0 c127 0 261 5 296 11 297 48 524 264 649
619 118 336 117 823 -4 1173 -105 304 -286 503 -529 584 -78 26 -88 27 -362
31 l-283 4 0 -1211z"/>
<path d="M10080 2319 c0 -3 -83 -251 -185 -552 l-184 -547 405 0 c383 0 406 1
399 18 -3 9 -99 253 -212 542 -179 456 -223 562 -223 539z"/>
</g>
</svg>
