<?xml version="1.0" standalone="no"?>
<!DOCTYPE svg PUBLIC "-//W3C//DTD SVG 20010904//EN"
 "http://www.w3.org/TR/2001/REC-SVG-20010904/DTD/svg10.dtd">
<svg version="1.0" xmlns="http://www.w3.org/2000/svg"
 width="2012.000000pt" height="1608.000000pt" viewBox="0 0 2012.000000 1608.000000"
 preserveAspectRatio="xMidYMid meet">

<g transform="translate(0.000000,1608.000000) scale(0.100000,-0.100000)"
fill="#000000" stroke="none">
<path d="M0 8040 l0 -8040 10060 0 10060 0 0 8040 0 8040 -10060 0 -10060 0 0
-8040z m18050 7806 c0 -2 -64 -40 -142 -84 -484 -272 -960 -619 -1523 -1112
-249 -217 -398 -322 -590 -415 -419 -203 -760 -289 -1845 -470 -184 -30 -360
-61 -390 -67 l-55 -13 95 -6 c275 -19 1178 -4 1584 26 109 8 211 15 227 15 27
0 21 -10 -119 -177 -337 -404 -707 -874 -1082 -1373 -288 -384 -455 -551 -730
-735 -212 -142 -464 -262 -735 -350 -131 -43 -531 -136 -745 -174 -384 -68
-943 -131 -1748 -197 -117 -10 -209 -21 -205 -25 8 -7 133 -20 415 -44 333
-28 675 -37 1153 -32 467 5 652 15 1043 56 92 10 169 17 170 15 2 -1 -52 -80
-120 -176 -68 -95 -247 -351 -398 -568 -541 -781 -726 -1017 -1055 -1345 -311
-311 -609 -507 -980 -645 -186 -69 -307 -96 -1020 -225 -379 -69 -694 -130
-698 -134 -21 -21 321 -51 643 -58 290 -6 491 3 739 33 68 8 126 13 128 10 8
-7 -429 -315 -774 -545 -286 -190 -734 -478 -909 -585 -241 -146 -408 -497
-503 -1057 -44 -256 -81 -680 -81 -934 0 -71 -5 -161 -10 -200 -11 -73 -53
-176 -96 -232 -13 -17 -24 -36 -24 -42 0 -13 -76 -77 -128 -108 -53 -32 -67
-22 -58 39 4 23 11 189 16 368 21 830 96 1749 226 2750 19 151 42 336 49 410
102 958 409 1965 851 2791 504 944 1195 1744 2079 2406 816 610 1968 1228
3205 1718 502 198 596 234 1500 555 322 115 662 236 755 269 94 33 325 114
515 180 368 127 932 330 1195 429 159 60 175 66 175 58z m-7580 -916 c467 -44
981 -175 1397 -355 237 -103 671 -339 680 -370 2 -6 -77 -50 -174 -99 l-178
-88 -65 37 c-838 477 -1854 649 -2830 480 -1066 -185 -2053 -795 -2698 -1666
-473 -639 -752 -1367 -832 -2174 -16 -157 -26 -4933 -11 -5160 20 -311 58
-547 131 -831 330 -1276 1252 -2350 2460 -2864 393 -167 810 -276 1245 -326
185 -21 672 -24 845 -5 569 62 1046 199 1520 436 453 227 805 486 1175 866
592 607 996 1394 1140 2221 63 363 59 149 63 2903 2 1794 0 2556 -8 2670 -18
262 -55 489 -122 757 l-31 127 80 85 c45 47 103 113 130 147 l48 62 33 -104
c115 -366 182 -758 202 -1194 13 -281 13 -4615 0 -4890 -50 -1070 -429 -2024
-1128 -2840 -105 -123 -354 -370 -486 -484 -688 -590 -1542 -967 -2451 -1082
-263 -33 -761 -38 -1027 -10 -256 28 -389 51 -635 111 -1136 280 -2102 958
-2747 1930 -147 221 -191 297 -307 533 -265 538 -419 1111 -458 1712 -14 203
-23 5028 -10 5195 104 1356 792 2593 1885 3392 719 524 1562 830 2454 888 155
10 556 5 710 -10z m-5572 -11311 c69 -227 154 -317 367 -385 61 -19 117 -37
125 -40 8 -3 -32 -20 -90 -38 -137 -42 -202 -76 -266 -140 -64 -64 -92 -119
-135 -260 l-33 -109 -36 114 c-43 135 -68 185 -118 241 -59 65 -138 111 -261
148 -61 19 -111 37 -111 40 0 3 39 17 88 30 127 35 209 80 274 148 68 71 87
107 129 245 18 59 34 105 36 104 1 -2 16 -46 31 -98z m-1533 -1073 c42 -136
89 -277 105 -313 96 -211 303 -418 512 -512 35 -16 153 -56 263 -91 110 -34
204 -65 208 -70 9 -8 -31 -53 -61 -69 -9 -5 -86 -30 -171 -56 -199 -61 -276
-94 -381 -163 -149 -98 -282 -248 -361 -409 -27 -53 -149 -416 -151 -450 -1
-10 -4 -10 -17 0 -10 8 -13 8 -8 0 4 -6 1 -18 -7 -26 -8 -8 -13 -17 -10 -20 3
-3 -2 -4 -12 -3 -14 2 -27 29 -52 112 -108 353 -148 445 -257 581 -108 135
-251 243 -406 306 -46 19 -186 65 -312 102 -125 38 -226 70 -224 72 2 1 109
34 238 73 129 38 263 82 299 97 182 76 342 206 452 367 74 108 116 208 194
469 42 141 79 256 81 254 1 -2 37 -115 78 -251z"/>
</g>
</svg>
