<?xml version="1.0" standalone="no"?>
<!DOCTYPE svg PUBLIC "-//W3C//DTD SVG 20010904//EN"
 "http://www.w3.org/TR/2001/REC-SVG-20010904/DTD/svg10.dtd">
<svg version="1.0" xmlns="http://www.w3.org/2000/svg"
 width="1877.000000pt" height="1465.000000pt" viewBox="0 0 1877.000000 1465.000000"
 preserveAspectRatio="xMidYMid meet">

<g transform="translate(0.000000,1465.000000) scale(0.100000,-0.100000)"
fill="#000000" stroke="none">
<path d="M0 7325 l0 -7325 9385 0 9385 0 0 7325 0 7325 -9385 0 -9385 0 0
-7325z m8957 4199 c43 -9 95 -25 117 -36 63 -32 136 -91 136 -109 0 -24 -59
-132 -126 -234 -54 -81 -56 -86 -40 -104 16 -18 15 -21 -38 -79 -31 -33 -56
-64 -56 -69 0 -4 33 -42 74 -82 l75 -74 71 61 c39 34 74 62 78 62 4 -1 36 -27
72 -60 35 -32 68 -56 72 -54 5 3 25 38 44 77 l36 71 -37 35 c-31 28 -36 37
-26 50 22 31 71 106 75 116 2 6 32 -18 66 -52 l63 -61 -36 -77 c-20 -42 -57
-107 -82 -143 -32 -48 -43 -73 -39 -89 5 -17 -6 -35 -50 -81 -31 -32 -56 -63
-56 -69 0 -5 31 -40 70 -77 l70 -68 76 66 77 65 62 -54 c69 -61 67 -61 104 12
l21 41 -35 31 c-40 35 -43 51 -15 76 11 10 32 38 46 62 14 25 29 41 33 36 4
-4 31 -34 60 -65 l53 -57 -30 -66 c-17 -36 -47 -90 -67 -120 -25 -36 -34 -61
-30 -74 4 -14 -10 -36 -55 -85 -34 -36 -60 -71 -58 -79 2 -7 33 -41 70 -76
l66 -62 75 66 c41 36 79 65 84 65 5 0 63 -47 128 -105 65 -58 120 -103 123
-100 8 8 -19 98 -45 150 -13 27 -40 69 -60 93 -19 23 -33 46 -31 50 13 28 51
82 58 82 15 0 77 -79 109 -139 41 -77 61 -159 61 -250 0 -55 4 -79 16 -92 14
-16 15 -25 5 -66 -7 -26 -23 -72 -37 -102 -19 -43 -24 -70 -24 -136 l0 -83
-132 -121 c-73 -67 -137 -121 -144 -121 -6 0 -30 7 -54 15 -40 14 -43 14 -74
-10 -18 -14 -40 -25 -49 -25 -9 0 -49 30 -89 68 -40 37 -121 109 -181 161 -59
51 -107 99 -107 105 0 6 12 28 26 49 14 21 24 42 22 47 -4 11 -139 130 -147
130 -3 0 -19 -16 -34 -35 -15 -19 -33 -35 -40 -35 -11 0 -70 48 -180 147 l-38
34 30 48 c17 26 31 52 30 57 0 5 -33 37 -72 71 l-72 62 -41 -40 c-30 -29 -46
-39 -56 -33 -34 20 -208 179 -208 190 0 6 14 30 30 52 17 23 30 46 30 52 0 9
-63 71 -128 125 l-32 27 -44 -48 -43 -49 -59 50 c-32 28 -88 77 -124 111 -36
33 -138 124 -227 203 l-163 142 14 28 c35 67 501 552 543 565 19 6 56 -23 240
-187 l218 -194 19 29 c10 16 29 55 42 86 28 70 25 76 -72 150 -85 65 -156 93
-257 101 -42 3 -78 11 -80 16 -4 18 127 51 216 54 21 0 72 -6 114 -15z m-1448
-1471 c-8 -10 -41 -49 -74 -88 -223 -258 -401 -592 -485 -910 -70 -260 -97
-577 -71 -826 60 -584 335 -1110 773 -1485 566 -484 1327 -646 2050 -439 66
19 147 46 181 59 99 40 91 50 92 -117 l0 -149 -25 -13 c-14 -7 -86 -33 -160
-58 -622 -212 -1356 -132 -1936 210 -409 242 -726 579 -933 992 -106 210 -170
402 -217 651 -32 167 -44 475 -24 652 60 558 321 1077 724 1440 107 96 132
116 105 81z m2975 -884 c73 -58 105 -248 56 -338 -14 -27 -26 -27 -126 9 -129
45 -124 41 -124 114 0 171 104 286 194 215z m-2208 -424 c233 -41 398 -111
664 -284 156 -101 432 -408 510 -567 98 -199 139 -339 147 -499 6 -134 -11
-228 -62 -331 -33 -67 -119 -174 -141 -174 -11 0 -94 77 -94 87 0 3 11 34 24
67 126 315 -33 759 -395 1100 -192 181 -439 319 -676 378 -69 17 -118 22 -228
23 -145 0 -207 -11 -298 -55 l-37 -18 -41 39 -42 40 34 36 c137 142 378 202
635 158z m1719 -9 c-25 -17 -239 -135 -550 -305 l-240 -131 -15 22 c-8 12 -38
55 -66 94 l-52 72 24 11 c27 12 403 117 684 191 107 28 200 53 205 55 23 8 28
4 10 -9z m174 -103 c-98 -109 -581 -622 -631 -670 l-53 -53 -47 64 -46 64 37
35 c60 57 765 607 778 607 3 0 -14 -21 -38 -47z m-1877 -507 c146 -28 278
-100 406 -221 64 -60 132 -147 148 -189 6 -14 -40 -16 -470 -16 l-475 0 -10
38 c-29 116 -20 192 32 269 40 59 96 98 167 117 71 19 111 19 202 2z m-3042
-3083 c33 -30 32 -30 271 -725 l108 -318 -103 0 -104 0 -22 68 c-39 120 -25
112 -218 112 -92 0 -173 -4 -180 -8 -6 -5 -25 -44 -41 -88 l-29 -79 -101 -3
c-56 -1 -101 -1 -101 2 0 2 57 170 126 373 69 202 144 421 166 485 22 65 49
132 62 150 42 64 115 77 166 31z m1052 10 c8 -10 106 -165 218 -345 112 -181
207 -328 212 -328 5 0 8 149 7 343 l-1 342 103 0 104 0 3 -225 c2 -124 0 -353
-4 -509 l-6 -285 -28 -28 c-23 -22 -38 -28 -73 -28 -86 0 -80 -8 -442 547
l-90 138 -3 -337 -2 -338 -99 0 -98 0 -6 212 c-4 116 -7 357 -7 535 l0 323 98
0 c82 0 101 -3 114 -17z m1710 6 c118 -25 216 -107 259 -217 20 -51 23 -79 27
-270 3 -170 1 -226 -12 -285 -43 -191 -155 -275 -381 -285 -206 -8 -331 29
-383 116 l-27 47 -3 453 -3 452 235 0 c136 0 257 -5 288 -11z m1225 -10 c9 -8
25 -33 35 -56 19 -44 322 -921 334 -967 l6 -26 -104 0 -103 0 -30 88 -30 87
-174 3 c-114 2 -178 -1 -185 -8 -6 -6 -23 -46 -37 -88 l-26 -77 -106 -3 -107
-3 99 288 c261 760 255 743 299 768 32 18 103 14 129 -6z m1230 -279 c101
-162 199 -317 216 -345 l32 -50 5 345 5 345 103 3 102 3 0 -495 c0 -284 -4
-505 -9 -519 -25 -64 -95 -85 -166 -51 -43 20 -45 22 -271 373 l-189 294 -6
-219 c-4 -120 -7 -272 -8 -336 l-1 -118 -100 0 -100 0 0 535 0 536 102 -3 101
-3 184 -295z m1705 293 c2 -5 2 -47 0 -95 l-3 -87 -142 -3 -142 -3 -3 -437 -2
-438 -100 0 -100 0 0 183 c0 101 -3 299 -7 440 l-6 257 -137 0 -137 0 -6 87
c-3 47 -4 90 -1 95 6 10 782 11 786 1z m1193 -88 l0 -90 -247 -3 -248 -2 0
-125 0 -125 170 0 170 0 -1 -52 c0 -29 -3 -71 -7 -93 l-7 -40 -165 -5 -165 -5
0 -102 c0 -157 11 -162 308 -163 l187 0 0 -85 0 -85 -230 0 c-128 0 -252 5
-282 11 -81 17 -132 51 -160 106 -23 48 -23 49 -26 501 l-3 452 353 -2 353 -3
0 -90z"/>
<path d="M5112 4562 c-34 -109 -62 -202 -62 -205 0 -4 59 -7 130 -7 72 0 130
2 130 4 0 2 -27 92 -60 201 -33 109 -60 199 -60 201 0 2 -4 4 -8 4 -4 0 -36
-89 -70 -198z"/>
<path d="M7700 4557 l0 -324 24 -22 c32 -30 140 -46 214 -30 38 8 63 21 91 47
54 52 64 108 59 336 -4 196 -9 216 -65 267 -42 39 -84 49 -209 49 l-114 0 0
-323z"/>
<path d="M9151 4728 c-5 -18 -33 -105 -60 -194 -28 -88 -51 -165 -51 -172 0
-13 250 -18 250 -4 2 16 -116 402 -122 402 -3 0 -11 -15 -17 -32z"/>
</g>
</svg>
